<svg width="338" height="317" viewBox="0 0 338 317" fill="none" xmlns="http://www.w3.org/2000/svg">
<g style="mix-blend-mode:darken">
<path d="M302.736 159.994C302.736 223.962 243.435 276.994 168.736 276.994C94.0365 276.994 34.7359 223.962 34.7359 159.994C34.7359 96.0263 94.0365 42.9943 168.736 42.9943C243.435 42.9943 302.736 96.0263 302.736 159.994Z" stroke="black" stroke-width="11"/>
</g>
<path d="M204.057 158.743L242.864 81.6233C243.776 79.8113 241.721 77.9493 240.007 79.0343L167.066 125.218L88.7264 84.4183C86.9008 83.4673 85.0027 85.5623 86.1279 87.2853L134.415 161.245L95.6081 238.365C94.6961 240.177 96.7505 242.039 98.4645 240.954L171.406 194.77L249.746 235.57C251.571 236.521 253.469 234.426 252.344 232.703L204.057 158.743Z" fill="#3D0F59" stroke="black" stroke-width="2"/>
<path d="M227.834 94.3253C228.695 93.7633 229.743 94.7123 229.267 95.6253L196.877 157.81C196.712 158.126 196.728 158.506 196.919 158.807L233.583 216.719C234.126 217.576 233.195 218.603 232.289 218.147L171.06 187.34C170.741 187.18 170.362 187.201 170.063 187.396L111.355 225.73C110.493 226.292 109.446 225.343 109.921 224.43L142.312 162.245C142.476 161.929 142.46 161.549 142.27 161.248L105.605 103.336C105.063 102.479 105.994 101.452 106.9 101.908L168.129 132.715C168.447 132.875 168.827 132.854 169.125 132.659L227.834 94.3253Z" fill="url(#paint0_radial_3_4)"/>
<g style="mix-blend-mode:lighten">
<path d="M169.236 277.494C243.242 277.494 303.236 224.888 303.236 159.994C303.236 95.1008 243.242 42.4943 169.236 42.4943C95.2297 42.4943 35.2359 95.1008 35.2359 159.994C35.2359 224.888 95.2297 277.494 169.236 277.494Z" stroke="#35A2BA" stroke-width="5"/>
</g>
<path d="M169.694 7.2081L168.736 4L167.778 7.2081L132.41 125.626L1 157.522V159.466L132.41 191.362L167.778 309.78L168.736 312.988L169.694 309.78L205.062 191.362L336.472 159.466V157.522L205.062 125.626L169.694 7.2081Z" fill="#3D0F59" stroke="black" stroke-width="2"/>
<path d="M169.714 27.7596L200.834 129.273C200.99 129.782 201.405 130.17 201.923 130.293L317.006 157.507C317.519 157.629 317.519 158.359 317.006 158.481L201.923 185.695C201.405 185.818 200.99 186.206 200.834 186.715L169.714 288.229C169.57 288.7 168.902 288.7 168.758 288.229L137.638 186.715C137.482 186.206 137.067 185.818 136.549 185.695L21.4662 158.481C20.9529 158.359 20.9529 157.629 21.4662 157.507L136.549 130.293C137.067 130.17 137.482 129.782 137.638 129.273L168.758 27.7596C168.902 27.2883 169.57 27.2883 169.714 27.7596Z" fill="url(#paint1_radial_3_4)" stroke="black"/>
<path d="M169.236 196.494C191.327 196.494 209.236 179.033 209.236 157.494C209.236 135.955 191.327 118.494 169.236 118.494C147.144 118.494 129.236 135.955 129.236 157.494C129.236 179.033 147.144 196.494 169.236 196.494Z" fill="black"/>
<path d="M169.736 184.494C184.924 184.494 197.236 172.63 197.236 157.994C197.236 143.359 184.924 131.494 169.736 131.494C154.548 131.494 142.236 143.359 142.236 157.994C142.236 172.63 154.548 184.494 169.736 184.494Z" fill="#35A2BA"/>
<path d="M169 191C188.302 191 204 175.806 204 157C204 138.194 188.302 123 169 123C149.698 123 134 138.194 134 157C134 175.806 149.698 191 169 191Z" fill="#3D0F59" stroke="#35A2BA" stroke-width="2"/>
<defs>
<radialGradient id="paint0_radial_3_4" cx="0" cy="0" r="1" gradientUnits="userSpaceOnUse" gradientTransform="translate(170 160) rotate(-137.974) scale(109.041 111.197)">
<stop offset="0.439"/>
<stop offset="0.804" stop-color="#35A2BA"/>
<stop offset="0.9998" stop-color="#0E0E0E" stop-opacity="0"/>
</radialGradient>
<radialGradient id="paint1_radial_3_4" cx="0" cy="0" r="1" gradientUnits="userSpaceOnUse" gradientTransform="translate(169 158) rotate(-90) scale(131 148)">
<stop stop-color="#35A2BA"/>
<stop offset="0.989796"/>
<stop offset="1" stop-color="#35A2BA" stop-opacity="0"/>
</radialGradient>
</defs>
</svg>
